<?xml version="1.0" encoding="UTF-8"?>
<svg width="512" height="512" fill="currentColor" stroke="currentColor" stroke-width="0" version="1.1" viewBox="0 0 512 512" xmlns="http://www.w3.org/2000/svg">
 <g stroke-width="0">
  <rect x="1.0167e-5" y="1.0167e-5" width="512" height="512" fill="#ffb01f"/>
  <path d="m1.0167e-5 1.0167e-5h512v512h-512z" fill="none" stroke="#fff"/>
  <path d="m191.83 233.07a24.567 25.743 0 0 1-24.742-25.924c0-14.486 10.917-25.946 24.742-25.946 13.805 0 24.742 11.459 24.742 25.946 0 14.465-10.936 25.924-24.742 25.924zm128.35 0a24.567 25.743 0 0 1-24.742-25.924c0-14.486 10.936-25.946 24.742-25.946 13.824 0 24.742 11.459 24.742 25.946 0 14.465-10.917 25.924-24.742 25.924zm-163.85 155.43 13.767-8.7964a77.015 80.7 0 0 1 52.081-10.814c4.0819 0.66581 7.4321 1.1904 10.012 1.5332 7.8172 1.0895 15.788 1.6341 23.817 1.6341 85.103 0 152.11-60.969 152.11-133.16 0-72.186-67.004-133.16-152.11-133.16s-152.11 60.969-152.11 133.16c0 27.558 9.6271 53.929 27.571 76.282 0.9242 1.1501 2.3104 2.764 4.1203 4.7411a77.015 80.7 0 0 1 21.199 62.583l-0.48137 5.9921zm-12.13 55.017a19.254 20.175 0 0 1-29.402-18.763l3.6198-45.596a38.509 40.35 0 0 0-10.59-31.292 134.64 141.08 0 0 1-5.8532-6.7183c-22.989-28.668-36.582-64.015-36.582-102.25 0-95.831 85.333-173.51 190.62-173.51 105.28 0 190.62 77.675 190.62 173.51 0 95.831-85.333 173.51-190.62 173.51-9.8195 0-19.447-0.66581-28.862-1.9772a454.59 476.33 0 0 1-10.956-1.6947 38.509 40.35 0 0 0-26.05 5.4069l-45.958 29.374z" fill="#fff"/>
 </g>
</svg>
